PathFileType	3	(X/Y/Z)	running_1__view1_aligned.trc
DataRate	CameraRate	NumFrames	NumMarkers	Units	OrigDataRate	OrigDataStartFrame	OrigNumFrames
100.0	100.0	9	19	mm	100.0	3424	6401
Frame#	Time	pelvis			neck			head			hip_left			hip_right			knee_left			knee_right			ankle_left			ankle_right			heel_left			heel_right			toe_left			toe_right			shoulder_left			shoulder_right			elbow_left			elbow_right			wrist_left			wrist_right			
		X1	Y1	Z1	X2	Y2	Z2	X3	Y3	Z3	X4	Y4	Z4	X5	Y5	Z5	X6	Y6	Z6	X7	Y7	Z7	X8	Y8	Z8	X9	Y9	Z9	X10	Y10	Z10	X11	Y11	Z11	X12	Y12	Z12	X13	Y13	Z13	X14	Y14	Z14	X15	Y15	Z15	X16	Y16	Z16	X17	Y17	Z17	X18	Y18	Z18	X19	Y19	Z19	
3424	34.23000	33.110003	935.581557	102.425023	12.063044	1472.380579	238.289888	26.072887	1546.317510	389.435588	107.972764	938.694715	97.543350	-41.752758	932.468399	107.306696	107.323825	509.814328	134.886975	-66.916593	536.158900	294.497221	76.689534	189.367254	-68.044860	-103.737133	228.597624	118.595378	68.288786	163.916451	-113.004777	-106.111747	204.298274	76.765925	92.106619	74.121451	46.114128	-98.628775	123.766444	230.204109	187.890891	1455.156876	199.733640	-157.019100	1423.802180	179.878053	292.449101	1206.580185	158.280674	-250.182477	1182.210539	61.580686	179.682936	1155.849596	361.084404	-247.553194	991.934443	225.298062
3425	34.24000	31.202541	935.600415	102.724693	10.084793	1472.407165	238.484009	24.091930	1546.268356	389.625285	106.205858	938.651073	97.655664	-43.800777	932.549758	107.793723	106.736884	510.104945	135.244013	-67.747723	535.893948	295.109285	74.674376	193.718256	-76.283661	-103.080507	223.971752	124.475473	65.869301	169.565027	-122.049027	-105.541133	198.147539	83.077055	91.021672	74.181024	34.489730	-97.416778	122.878157	240.905364	185.606213	1455.348137	199.673533	-158.835413	1423.790193	180.279096	290.818738	1206.105814	158.966114	-252.527176	1182.267047	61.963396	177.054708	1156.680719	362.912609	-250.564203	990.481045	224.569256
3426	34.25000	29.295078	935.619274	103.024364	8.106542	1472.433750	238.678129	22.110973	1546.219201	389.814982	104.438952	938.607431	97.767978	-45.848796	932.631117	108.280749	106.149943	510.395562	135.601052	-68.578853	535.628997	295.721349	72.659217	198.069257	-84.522462	-102.423880	219.345880	130.355569	63.449817	175.213602	-131.093276	-104.970518	191.996804	89.388185	89.936726	74.240596	22.865332	-96.204781	121.989871	251.606619	183.321536	1455.539397	199.613425	-160.651726	1423.778206	180.680138	289.188375	1205.631442	159.651554	-254.871874	1182.323556	62.346105	174.426479	1157.511843	364.740814	-253.575211	989.027646	223.840450
3427	34.26000	27.387616	935.638132	103.324034	6.128291	1472.460336	238.872250	20.130017	1546.170047	390.004679	102.672047	938.563788	97.880292	-47.896815	932.712475	108.767776	105.563003	510.686179	135.958091	-69.409982	535.364045	296.333414	70.644059	202.420259	-92.761263	-101.767254	214.720008	136.235664	61.030333	180.862177	-140.137526	-104.399903	185.846069	95.699316	88.851779	74.300169	11.240934	-94.992783	121.101584	262.307875	181.036858	1455.730657	199.553318	-162.468039	1423.766219	181.081181	287.558012	1205.157071	160.336995	-257.216572	1182.380065	62.728814	171.798251	1158.342966	366.569019	-256.586220	987.574248	223.111645
3428	34.27000	25.480153	935.656990	103.623704	4.150040	1472.486922	239.066371	18.149060	1546.120893	390.194376	100.905141	938.520146	97.992607	-49.944835	932.793834	109.254802	104.976062	510.976796	136.315130	-70.241112	535.099094	296.945478	68.628900	206.771261	-101.000064	-101.110627	210.094136	142.115759	58.610849	186.510752	-149.181776	-103.829288	179.695334	102.010446	87.766832	74.359742	-0.383464	-93.780786	120.213297	273.009130	178.752181	1455.921918	199.493210	-164.284352	1423.754232	181.482223	285.927649	1204.682700	161.022435	-259.561270	1182.436573	63.111523	169.170023	1159.174090	368.397224	-259.597229	986.120849	222.382839
3429	34.28000	23.572690	935.675848	103.923375	2.171789	1472.513508	239.260491	16.168103	1546.071739	390.384073	99.138235	938.476503	98.104921	-51.992854	932.875193	109.741829	104.389121	511.267413	136.672169	-71.072242	534.834142	297.557543	66.613742	211.122262	-109.238866	-100.454000	205.468264	147.995854	56.191365	192.159328	-158.226025	-103.258673	173.544599	108.321576	86.681885	74.419314	-12.007862	-92.568789	119.325010	283.710385	176.467503	1456.113178	199.433103	-166.100665	1423.742245	181.883266	284.297286	1204.208328	161.707875	-261.905968	1182.493082	63.494233	166.541794	1160.005213	370.225429	-262.608238	984.667451	221.654033
3430	34.29000	21.665228	935.694706	104.223045	0.193538	1472.540094	239.454612	14.187146	1546.022585	390.573770	97.371329	938.432861	98.217235	-54.040873	932.956552	110.228855	103.802181	511.558030	137.029207	-71.903371	534.569190	298.169607	64.598583	215.473264	-117.477667	-99.797374	200.842392	153.875949	53.771881	197.807903	-167.270275	-102.688059	167.393864	114.632706	85.596939	74.478887	-23.632260	-91.356792	118.436723	294.411641	174.182826	1456.304438	199.372996	-167.916978	1423.730258	182.284309	282.666923	1203.733957	162.393315	-264.250666	1182.549591	63.876942	163.913566	1160.836337	372.053634	-265.619247	983.214052	220.925227
3431	34.30000	19.757765	935.713565	104.522715	-1.784713	1472.566680	239.648732	12.206189	1545.973431	390.763467	95.604423	938.389219	98.329549	-56.088893	933.037911	110.715882	103.215240	511.848647	137.386246	-72.734501	534.304239	298.781671	62.583424	219.824266	-125.716468	-99.140747	196.216520	159.756045	51.352397	203.456478	-176.314524	-102.117444	161.243129	120.943836	84.511992	74.538460	-35.256658	-90.144794	117.548436	305.112896	171.898148	1456.495699	199.312888	-169.733291	1423.718271	182.685351	281.036560	1203.259585	163.078755	-266.595364	1182.606100	64.259651	161.285337	1161.667460	373.881839	-268.630256	981.760654	220.196422
3432	34.31000	17.850303	935.732423	104.822386	-3.762963	1472.593266	239.842853	10.225232	1545.924277	390.953164	93.837518	938.345576	98.441863	-58.136912	933.119269	111.202909	102.628300	512.139265	137.743285	-73.565631	534.039287	299.393736	60.568266	224.175267	-133.955269	-98.484120	191.590648	165.636140	48.932912	209.105053	-185.358774	-101.546829	155.092394	127.254967	83.427045	74.598032	-46.881055	-88.932797	116.660150	315.814151	169.613470	1456.686959	199.252781	-171.549604	1423.706285	183.086394	279.406197	1202.785214	163.764195	-268.940062	1182.662608	64.642360	158.657109	1162.498584	375.710044	-271.641265	980.307255	219.467616
